<svg width="26" height="26" viewBox="0 0 26 26" fill="none" xmlns="http://www.w3.org/2000/svg">
<path d="M0 5C0 2.23858 2.23858 0 5 0H21C23.7614 0 26 2.23858 26 5V21C26 23.7614 23.7614 26 21 26H5C2.23858 26 0 23.7614 0 21V5Z" fill="#F1F1F1"/>
<path d="M7.64158 14.0376C7.64158 12.861 7.64117 11.6844 7.64198 10.5078C7.64239 10.1493 7.84082 9.89985 8.17682 9.82902C8.54001 9.75263 8.91538 10.028 8.94135 10.3913C8.9454 10.4458 8.94297 10.5003 8.94297 10.5552C8.94297 12.8491 8.94297 15.1425 8.94297 17.4364C8.94297 18.1936 9.47822 18.7185 10.25 18.7185C11.9714 18.7189 13.6924 18.7189 15.4138 18.7185C16.186 18.7185 16.7213 18.1936 16.7213 17.436C16.7213 15.1127 16.7213 12.789 16.7217 10.4657C16.7217 10.1716 16.9019 9.9273 17.1738 9.84534C17.4505 9.76218 17.7553 9.85767 17.903 10.102C17.9695 10.2118 18.0174 10.3519 18.0178 10.4784C18.0243 12.8367 18.03 15.1947 18.0198 17.553C18.0146 18.7877 17.0281 19.8358 15.777 19.9706C15.6415 19.9854 15.5047 19.9937 15.3684 19.9937C13.6421 19.9953 11.9154 20.0092 10.1896 19.9893C9.12314 19.977 8.34523 19.4721 7.87329 18.5299C7.71056 18.2048 7.64239 17.8542 7.64198 17.4929C7.64077 16.341 7.64158 15.1895 7.64158 14.0376Z" fill="#636363" stroke="#EEEEEE" stroke-width="0.5"/>
<path d="M15.4272 7.90692C15.5096 7.90692 15.5696 7.90692 15.6301 7.90692C16.4198 7.90692 17.2091 7.90454 17.9988 7.90812C18.3473 7.90971 18.6277 8.15044 18.6626 8.46478C18.6992 8.79264 18.504 9.07833 18.1806 9.16269C18.1181 9.179 18.0511 9.18258 17.9858 9.18258C14.5495 9.18338 11.1132 9.18338 7.67688 9.18298C7.28609 9.18298 7.00122 8.91599 7 8.55231C6.99879 8.18784 7.28082 7.90971 7.66795 7.90812C8.45763 7.90454 9.24691 7.90692 10.0366 7.90692C10.0967 7.90692 10.1571 7.90692 10.2375 7.90692C10.2375 7.84246 10.2375 7.78915 10.2375 7.73623C10.2375 7.38886 10.235 7.0415 10.2383 6.69413C10.2423 6.25923 10.5085 6.0006 10.9504 6.0006C12.2056 5.9998 13.4607 5.9998 14.7159 6.0006C15.157 6.00099 15.4223 6.25963 15.4264 6.69572C15.4301 7.09203 15.4272 7.48834 15.4272 7.90692ZM11.5462 7.89936C12.4117 7.89936 13.2598 7.89936 14.1169 7.89936C14.1169 7.69087 14.1169 7.48993 14.1169 7.2866C13.2558 7.2866 12.404 7.2866 11.5462 7.2866C11.5462 7.49311 11.5462 7.68967 11.5462 7.89936Z" fill="#636363" stroke="#EEEEEE" stroke-width="0.5"/>
<path d="M10.8888 13.9354C10.8888 13.2108 10.8884 12.4863 10.8888 11.7613C10.8892 11.3753 11.1574 11.0936 11.525 11.0908C11.9049 11.0881 12.1885 11.3654 12.1889 11.7541C12.1914 13.2184 12.1914 14.6827 12.1889 16.1469C12.1881 16.5357 11.9041 16.8134 11.5246 16.8102C11.157 16.807 10.8892 16.5253 10.8888 16.1394C10.8884 15.4049 10.8888 14.6703 10.8888 13.9354Z" fill="#636363" stroke="#EEEEEE" stroke-width="0.5"/>
<path d="M14.7763 13.9522C14.7763 14.6819 14.7767 15.4113 14.7759 16.141C14.7755 16.5266 14.5064 16.8075 14.138 16.8099C13.7594 16.8127 13.4765 16.5337 13.4757 16.1446C13.4737 14.6803 13.4733 13.2161 13.4757 11.7518C13.4765 11.3642 13.7614 11.0869 14.1412 11.0905C14.5085 11.0941 14.7755 11.3758 14.7759 11.7625C14.7767 12.4931 14.7763 13.2228 14.7763 13.9522Z" fill="#636363" stroke="#EEEEEE" stroke-width="0.5"/>
</svg>
