<svg width="20" height="21" viewBox="0 0 20 21" fill="none" xmlns="http://www.w3.org/2000/svg">
<path d="M10 1.61133C8.26957 1.61277 6.61 2.29893 5.38379 3.51994C4.15758 4.74094 3.46437 6.39757 3.45557 8.128C3.45557 10.7224 4.91112 12.8947 5.97779 14.478L6.17223 14.7669C7.2335 16.305 8.37199 17.7884 9.58334 19.2113L10.0056 19.7058L10.4278 19.2113C11.639 17.7883 12.7775 16.3049 13.8389 14.7669L14.0333 14.4724C15.0945 12.8891 16.55 10.7224 16.55 8.128C16.5412 6.39661 15.8472 4.73914 14.6198 3.51798C13.3924 2.29682 11.7314 1.61131 10 1.61133ZM10 11.0558C9.27921 11.0558 8.57459 10.842 7.97527 10.4416C7.37594 10.0411 6.90882 9.47193 6.63298 8.806C6.35714 8.14006 6.28497 7.40729 6.42559 6.70033C6.56622 5.99338 6.91331 5.344 7.423 4.83432C7.93268 4.32463 8.58206 3.97753 9.28901 3.83691C9.99597 3.69629 10.7287 3.76846 11.3947 4.0443C12.0606 4.32014 12.6298 4.78726 13.0303 5.38658C13.4307 5.98591 13.6445 6.69053 13.6445 7.41133C13.6445 8.37789 13.2605 9.30487 12.577 9.98834C11.8936 10.6718 10.9666 11.0558 10 11.0558Z" fill="#C4C4C4"/>
<path d="M9.99996 9.48331C11.1444 9.48331 12.0722 8.55555 12.0722 7.41109C12.0722 6.26663 11.1444 5.33887 9.99996 5.33887C8.8555 5.33887 7.92773 6.26663 7.92773 7.41109C7.92773 8.55555 8.8555 9.48331 9.99996 9.48331Z" fill="#C4C4C4"/>
</svg>
